<svg width="99" height="99" viewBox="0 0 99 99" fill="none" xmlns="http://www.w3.org/2000/svg">
<mask id="mask0_0_9" style="mask-type:luminance" maskUnits="userSpaceOnUse" x="0" y="0" width="99" height="53">
<path fill-rule="evenodd" clip-rule="evenodd" d="M0 0H99V53H0V0Z" fill="white"/>
</mask>
<g mask="url(#mask0_0_9)">
<path fill-rule="evenodd" clip-rule="evenodd" d="M89.6499 20.3908C89.6499 21.4022 89.5123 22.26 89.2381 22.9664C88.9648 23.6727 88.5767 24.2521 88.0727 24.7097C87.5698 25.1642 86.9643 25.4959 86.2565 25.7027C85.5527 25.9084 84.7672 26.0139 83.902 26.0139C83.3121 26.0139 82.7709 25.9801 82.2824 25.9166C81.7887 25.8521 81.3561 25.7774 80.9743 25.6934C80.5913 25.6075 80.2778 25.5245 80.0325 25.4457C79.7882 25.3669 79.6164 25.3075 79.515 25.2655C79.6309 24.9636 79.7375 24.6626 79.8379 24.3565C79.9393 24.0484 80.0408 23.7454 80.1422 23.4485C80.2426 23.4905 80.4009 23.5468 80.6182 23.6195C80.8335 23.6891 81.0922 23.7577 81.3955 23.8222C81.6987 23.8867 82.0392 23.9389 82.4221 23.9808C82.8019 24.0249 83.2107 24.0463 83.6433 24.0463C84.2053 24.0463 84.7082 23.987 85.1553 23.8652C85.6024 23.7433 85.9801 23.5325 86.2885 23.2336C86.6001 22.9336 86.837 22.5395 87.0047 22.0481C87.1682 21.5547 87.252 20.9395 87.252 20.1994C86.9643 20.6119 86.5142 20.9436 85.9015 21.1923C85.2888 21.4421 84.6151 21.567 83.8824 21.567C83.189 21.567 82.5463 21.4708 81.9554 21.2773C81.3644 21.0859 80.8625 20.8074 80.4444 20.444C80.0263 20.0817 79.6982 19.6292 79.4612 19.0877C79.2252 18.5461 79.1031 17.9258 79.1031 17.2266V11.926C79.1031 11.5421 79.2211 11.2565 79.4519 11.0713C79.6827 10.887 79.9983 10.7938 80.4009 10.7938C80.6627 10.7938 80.9008 10.8256 81.1254 10.889C81.3479 10.9535 81.4979 10.9996 81.5662 11.0293V16.7363C81.5662 17.5767 81.7949 18.2462 82.2482 18.7447C82.7036 19.2422 83.4053 19.493 84.3564 19.493C85.236 19.493 85.9274 19.2402 86.4303 18.7324C86.9343 18.2288 87.1869 17.4846 87.1869 16.5008V11.926C87.1869 11.5421 87.3028 11.2565 87.5335 11.0713C87.7633 10.887 88.0789 10.7938 88.4826 10.7938C88.7403 10.7938 88.9845 10.8256 89.207 10.889C89.4305 10.9535 89.5796 10.9996 89.6499 11.0293V20.3908ZM77.3169 21.1842C77.0892 21.2968 76.8325 21.3961 76.5521 21.4861L76.551 21.4779C76.2964 21.5629 76.0253 21.6417 75.7241 21.7052C75.3464 21.782 74.9376 21.8229 74.4905 21.8229C73.2248 21.8229 72.2654 21.4994 71.6166 20.8504C70.9697 20.2024 70.6437 19.3507 70.6437 18.2964V8.89083C70.6437 8.49159 70.7586 8.20394 70.9904 8.0248C71.2222 7.84668 71.5369 7.75762 71.9415 7.75762C72.2013 7.75762 72.4414 7.78935 72.666 7.85384C72.8874 7.91834 73.0365 7.96542 73.1089 7.99306V10.7938H76.2416C76.7176 10.7938 77.053 10.889 77.2465 11.0825C77.4431 11.2739 77.5383 11.5555 77.5383 11.926C77.5383 12.1697 77.5021 12.3928 77.4297 12.5986C77.3572 12.8064 77.3013 12.9528 77.2579 13.0377H73.1089V17.804C73.1089 18.1756 73.1575 18.4776 73.259 18.713C73.3593 18.9484 73.5011 19.1368 73.6802 19.2801C73.8613 19.4214 74.0703 19.5217 74.3084 19.578C74.5464 19.6353 74.7937 19.664 75.0525 19.664C75.4716 19.664 75.8597 19.6005 76.2199 19.4736C76.3616 19.4214 76.4848 19.3722 76.5955 19.3231C76.7021 19.2719 76.8108 19.2197 76.9008 19.1696C76.935 19.1481 76.9691 19.1276 76.9971 19.1081H76.9981C77.0861 19.0559 77.1751 19.0037 77.2434 18.9525C77.4328 18.8123 77.5549 18.7099 77.6087 18.6454C77.6542 18.6567 77.7257 18.6915 77.8188 18.7509C77.9119 18.8082 78.003 18.886 78.0951 18.9832C78.1831 19.0784 78.2659 19.189 78.3445 19.3149C78.4211 19.4408 78.4677 19.5923 78.4822 19.7684C78.5267 20.3069 78.1376 20.7798 77.3169 21.1842V21.1842ZM68.8502 8.50695C68.5625 8.79051 68.2065 8.93382 67.7905 8.93382C67.3724 8.93382 67.0195 8.79051 66.7318 8.50695C66.443 8.22134 66.2971 7.87227 66.2971 7.4587C66.2971 7.04514 66.443 6.69709 66.7318 6.41046C67.0195 6.12588 67.3724 5.98461 67.7905 5.98461C68.2065 5.98461 68.5625 6.12588 68.8502 6.41046C69.1369 6.69709 69.2828 7.04514 69.2828 7.4587C69.2828 7.87227 69.1369 8.22134 68.8502 8.50695V8.50695ZM69.0231 21.524H66.56V11.926C66.56 11.5278 66.6759 11.2391 66.9046 11.061C67.1343 10.8829 67.4593 10.7938 67.8753 10.7938C68.1351 10.7938 68.3752 10.8256 68.5905 10.889C68.8068 10.9535 68.9506 10.9996 69.0231 11.0293V21.524ZM63.9789 20.7122C63.123 21.3541 61.8873 21.6735 60.2749 21.6735C59.4956 21.6735 58.7898 21.6182 58.1564 21.5035C57.522 21.3899 56.9704 21.2568 56.5047 21.1074C56.0338 20.9579 55.6571 20.8126 55.3684 20.6703C55.0807 20.529 54.8934 20.4205 54.8064 20.3499L55.7358 18.7028C55.8382 18.7744 56.0183 18.8676 56.277 18.9812C56.5368 19.0938 56.8556 19.2136 57.2374 19.3344C57.6214 19.4552 58.055 19.5575 58.5456 19.6435C59.0341 19.7285 59.567 19.7725 60.1445 19.7725C60.8948 19.7725 61.5065 19.6753 61.9815 19.4828C62.4576 19.2914 62.6945 18.9587 62.6945 18.4888C62.6945 18.0916 62.5424 17.7886 62.2413 17.5808C61.9391 17.3751 61.3988 17.2276 60.6206 17.1437L58.9347 16.9513C58.3572 16.8939 57.8273 16.7905 57.3471 16.6411C56.8638 16.4906 56.4499 16.2869 56.1021 16.032C55.7575 15.774 55.4853 15.4567 55.2939 15.081C55.1003 14.7022 55.001 14.2508 55.001 13.7226C55.001 13.266 55.091 12.8361 55.2711 12.4297C55.4501 12.0223 55.7358 11.664 56.127 11.3497C56.513 11.0375 57.0232 10.7908 57.6483 10.6137C58.2765 10.4345 59.0341 10.3455 59.9282 10.3455C61.4268 10.3455 62.588 10.5082 63.419 10.8379C64.2469 11.1654 64.6609 11.5923 64.6609 12.1195C64.6609 12.2905 64.6288 12.4409 64.5646 12.5689C64.4974 12.6969 64.426 12.8105 64.3483 12.9098C64.2666 13.0111 64.1859 13.093 64.1 13.1565C64.0141 13.221 63.9489 13.2599 63.9044 13.2742C63.8474 13.2169 63.7201 13.1268 63.5256 13.007C63.3321 12.8862 63.0692 12.7644 62.737 12.6436C62.4068 12.5228 62.0115 12.4153 61.5489 12.3232C61.0884 12.229 60.5554 12.184 59.95 12.184C58.2786 12.184 57.4444 12.6191 57.4444 13.4882C57.4444 13.8587 57.6017 14.1382 57.9184 14.3317C58.2361 14.5241 58.6894 14.6562 59.2804 14.7289L61.4858 15.0052C62.6801 15.1619 63.6094 15.4864 64.2718 15.9777C64.9341 16.4701 65.2663 17.1928 65.2663 18.1469C65.2663 19.2166 64.8379 20.0714 63.9789 20.7122V20.7122ZM59.5505 39.5151H57.0874V26.0507C57.0874 25.6648 57.2043 25.3812 57.4341 25.1949C57.6649 25.0107 57.9898 24.9175 58.4069 24.9175C58.6677 24.9175 58.9037 24.9492 59.1189 25.0137C59.3373 25.0782 59.4801 25.1222 59.5505 25.1529V39.5151ZM54.7412 38.9808C54.5943 39.0524 54.4287 39.119 54.2579 39.1824C54.0861 39.2531 53.9009 39.3216 53.6887 39.3872C53.3213 39.5028 52.897 39.6021 52.4158 39.6871C51.9335 39.7721 51.4016 39.814 50.8261 39.814C50.0179 39.814 49.2655 39.6943 48.5669 39.4506C47.8704 39.2111 47.2567 38.8507 46.731 38.3717C46.2042 37.8957 45.7902 37.3101 45.488 36.6202C45.1848 35.9292 45.0348 35.1338 45.0348 34.237C45.0348 33.3823 45.1817 32.6012 45.4767 31.8949C45.7716 31.1916 46.1825 30.5846 46.7103 30.0778C47.236 29.5732 47.8539 29.1801 48.5669 28.9027C49.281 28.6242 50.0624 28.486 50.912 28.486C51.6613 28.486 52.3247 28.5823 52.9022 28.7757C53.4776 28.9672 53.963 29.2241 54.3583 29.5445C54.7557 29.8649 55.0548 30.2396 55.2556 30.6665C55.4584 31.0944 55.5598 31.5499 55.5598 32.0351C55.5598 32.5336 55.4657 32.9861 55.2783 33.3915C55.09 33.7979 54.7599 34.147 54.2838 34.4397C53.8098 34.7315 53.1682 34.9598 52.3609 35.1246C51.5537 35.2873 50.5291 35.3692 49.2924 35.3692C49.0037 35.3692 48.7335 35.3662 48.4821 35.359C48.2295 35.3508 47.9574 35.3406 47.6707 35.3273C47.7845 36.0541 48.1426 36.6417 48.7408 37.0911C49.3379 37.5394 50.1917 37.7626 51.3022 37.7626C51.6758 37.7626 52.0215 37.7349 52.3402 37.6786C52.6548 37.6223 52.9405 37.5497 53.193 37.4657C53.431 37.3848 53.6318 37.303 53.8067 37.2221V37.2211C53.8253 37.2129 53.845 37.2047 53.8636 37.1975C53.8895 37.1842 53.9102 37.174 53.935 37.1627C54.2414 37.0194 54.4887 36.8802 54.6688 36.7471C54.8571 36.6079 54.9793 36.5045 55.0331 36.442C55.0796 36.4523 55.151 36.4881 55.2432 36.5465C55.3363 36.6048 55.4263 36.6816 55.5195 36.7788C55.6074 36.874 55.6913 36.9846 55.7699 37.1105C55.8465 37.2364 55.8931 37.3889 55.9076 37.564C55.9521 38.1045 55.5619 38.5764 54.7412 38.9808V38.9808ZM43.9853 32.205C43.6904 32.8479 43.3737 33.5174 43.0363 34.2145C42.6969 34.9137 42.3605 35.5934 42.0304 36.2557C41.6972 36.9191 41.3856 37.5353 41.0886 38.1055C40.7947 38.6767 40.5453 39.1456 40.3445 39.5151H37.9239C37.247 38.2765 36.6281 37.1115 36.0662 36.0203C35.5053 34.9301 35.0209 33.9586 34.6173 33.1028C34.2126 32.248 33.9042 31.5356 33.689 30.9664C33.4716 30.3962 33.364 30.0256 33.364 29.8547C33.364 29.5558 33.4654 29.3029 33.6672 29.0951C33.868 28.8883 34.1806 28.786 34.5956 28.786C34.8978 28.786 35.1482 28.8136 35.3428 28.872C35.5363 28.9283 35.6481 28.9713 35.676 28.9989C35.9637 29.7687 36.2742 30.5487 36.6064 31.34C36.9355 32.1303 37.2656 32.8786 37.5885 33.585C37.9135 34.2903 38.2157 34.9301 38.4982 35.5074C38.7777 36.0858 39.0115 36.5587 39.2009 36.9283C39.4731 36.4164 39.7681 35.8115 40.0827 35.1123C40.4014 34.4152 40.7088 33.7232 41.0027 33.0383C41.2997 32.3545 41.5657 31.7321 41.8037 31.1691C42.0397 30.6061 42.2094 30.1966 42.3129 29.9397C42.4547 29.5834 42.6275 29.3029 42.8293 29.0951C43.0312 28.8883 43.3478 28.786 43.7815 28.786C44.1841 28.786 44.5111 28.8535 44.7636 28.9887C45.0141 29.1238 45.1569 29.2057 45.1848 29.2343C45.1 29.5333 44.9509 29.9437 44.7419 30.4638C44.5328 30.9848 44.2813 31.5642 43.9853 32.205V32.205ZM32.178 16.2224C31.8396 16.9205 31.5053 17.6003 31.1731 18.2636C30.8419 18.9269 30.5273 19.5442 30.2313 20.1124C29.9374 20.6836 29.689 21.1534 29.4851 21.524H27.0666C26.3897 20.2833 25.7708 19.1194 25.2089 18.0282C24.648 16.939 24.1626 15.9665 23.761 15.1117C23.3574 14.2559 23.0469 13.5445 22.8306 12.9732C22.6143 12.4031 22.5067 12.0325 22.5067 11.8626C22.5067 11.5636 22.6071 11.3098 22.8099 11.103C23.0107 10.8962 23.3222 10.7938 23.7383 10.7938C24.0425 10.7938 24.2899 10.8215 24.4844 10.8788C24.679 10.9351 24.7908 10.9791 24.8187 11.0068C25.1075 11.7766 25.4169 12.5566 25.7491 13.3469C26.0803 14.1382 26.4083 14.8865 26.7323 15.5928C27.0572 16.2961 27.3605 16.939 27.6409 17.5163C27.9214 18.0937 28.1532 18.5676 28.3436 18.9372C28.6169 18.4243 28.9108 17.8193 29.2275 17.1202C29.5462 16.422 29.8494 15.7321 30.1465 15.0462C30.4414 14.3634 30.7063 13.74 30.9465 13.178C31.1845 12.6139 31.3532 12.2045 31.4546 11.9475C31.5964 11.5913 31.7702 11.3098 31.9721 11.103C32.1728 10.8962 32.4905 10.7938 32.9231 10.7938C33.3278 10.7938 33.6548 10.8614 33.9063 10.9965C34.1588 11.1317 34.2985 11.2135 34.3296 11.2412C34.2416 11.5421 34.0926 11.9506 33.8846 12.4716C33.6755 12.9927 33.423 13.5711 33.1291 14.2129C32.8331 14.8537 32.5154 15.5253 32.178 16.2224V16.2224ZM32.801 39.4721C32.6572 39.5018 32.4316 39.5335 32.1231 39.5694C31.8116 39.6042 31.4473 39.641 31.0292 39.6758C30.6122 39.7117 30.1444 39.7434 29.6259 39.7731C29.1064 39.8007 28.5672 39.8151 28.0052 39.8151C26.8823 39.8151 25.9633 39.7199 25.2492 39.5274C24.5372 39.3339 23.9753 39.078 23.5634 38.7576C23.1546 38.4362 22.872 38.0656 22.722 37.6459C22.5698 37.2252 22.4953 36.7942 22.4953 36.352C22.4953 35.7685 22.5843 35.2546 22.7644 34.8144C22.9434 34.3722 23.2405 34.0006 23.6493 33.7017C24.0591 33.4027 24.5972 33.1775 25.2617 33.0301C25.9219 32.8786 26.7312 32.8049 27.6813 32.8049C28.2277 32.8049 28.7483 32.8223 29.2378 32.8571C29.7252 32.894 30.0926 32.9247 30.34 32.9534C30.34 32.4548 30.2562 32.0433 30.0895 31.7147C29.925 31.3861 29.6963 31.1302 29.4106 30.9439C29.1219 30.7596 28.7752 30.6317 28.3726 30.56C27.9659 30.4883 27.5229 30.4525 27.0334 30.4525C26.2107 30.4525 25.5504 30.5446 25.0547 30.731C24.5579 30.9162 24.2298 31.0739 24.0715 31.2008C23.9866 31.1302 23.8656 30.9951 23.7176 30.7954C23.5634 30.5958 23.4899 30.3532 23.4899 30.0676C23.4899 29.869 23.5437 29.6725 23.6493 29.481C23.759 29.2876 23.9484 29.1156 24.2236 28.9672C24.4969 28.8167 24.8643 28.699 25.3248 28.615C25.7864 28.53 26.369 28.486 27.0759 28.486C27.9245 28.486 28.6996 28.5689 29.3993 28.7317C30.0989 28.8965 30.6991 29.1555 31.2041 29.5128C31.7061 29.869 32.0993 30.3389 32.3808 30.9234C32.6623 31.5069 32.801 32.2132 32.801 33.0383V39.4721ZM22.1714 30.7084C22.0348 30.9377 21.9241 31.079 21.8371 31.1363C21.5929 31.0227 21.2886 30.9162 20.9305 30.8159C20.5673 30.7166 20.1585 30.6665 19.6969 30.6665C18.0121 30.6665 17.1697 31.5509 17.1697 33.3168V39.5151H14.7055V32.6114C14.7055 31.3001 15.1143 30.2857 15.9267 29.566C16.7402 28.8474 17.8682 28.486 19.3078 28.486C20.2154 28.486 20.9512 28.6109 21.5235 28.8607C22.0928 29.1084 22.3774 29.4903 22.3774 30.0031C22.3774 30.2468 22.307 30.4822 22.1714 30.7084V30.7084ZM12.379 39.1753C12.1524 39.2868 11.8957 39.3872 11.6153 39.4772L11.6142 39.4701C11.3596 39.5561 11.0875 39.6328 10.7863 39.6963C10.4106 39.7741 10.0008 39.814 9.55372 39.814C8.28698 39.814 7.32865 39.4895 6.67976 38.8415C6.03293 38.1925 5.70693 37.3429 5.70693 36.2875V26.883C5.70693 26.4837 5.82181 26.195 6.0526 26.0169C6.28442 25.8378 6.6011 25.7497 7.00368 25.7497C7.26552 25.7497 7.50355 25.7815 7.72709 25.846C7.95167 25.9084 8.09862 25.9576 8.1721 25.9842V28.7849H11.3048C11.7788 28.7849 12.1151 28.8801 12.3107 29.0736C12.5043 29.2661 12.6005 29.5466 12.6005 29.9182C12.6005 30.1608 12.5643 30.3849 12.4929 30.5907C12.4204 30.7975 12.3656 30.9429 12.3211 31.0288H8.1721V35.7951C8.1721 36.1667 8.22074 36.4687 8.32217 36.7041C8.42255 36.9395 8.56434 37.1289 8.74338 37.2722C8.92449 37.4125 9.13147 37.5138 9.37054 37.5701C9.60857 37.6264 9.85695 37.6551 10.1157 37.6551C10.5348 37.6551 10.9229 37.5916 11.282 37.4637C11.429 37.4115 11.5542 37.3603 11.667 37.3101C11.7695 37.26 11.875 37.2098 11.9609 37.1617C11.9961 37.1402 12.0323 37.1197 12.0603 37.0992H12.0613C12.1493 37.047 12.2373 36.9948 12.3066 36.9426C12.4949 36.8034 12.6181 36.701 12.6719 36.6376C12.7164 36.6478 12.7878 36.6836 12.883 36.743C12.9751 36.8003 13.0662 36.8771 13.1573 36.9733C13.2463 37.0696 13.3301 37.1811 13.4077 37.306C13.4843 37.433 13.5299 37.5834 13.5454 37.7585C13.5899 38.299 13.1997 38.7719 12.379 39.1753V39.1753ZM5.21121 16.1579C5.21121 15.3318 5.34989 14.5733 5.63139 13.8812C5.91185 13.1913 6.30305 12.5924 6.79981 12.0867C7.2976 11.581 7.88026 11.188 8.54778 10.9105C9.2184 10.6331 9.95112 10.4949 10.7428 10.4949C11.579 10.4949 12.3128 10.6546 12.9493 10.975C13.5816 11.2954 14.0763 11.6834 14.4354 12.139V6.90387C14.4354 6.51795 14.5482 6.23336 14.7738 6.0491C14.9953 5.86279 15.3172 5.76964 15.7342 5.76964C15.994 5.76964 16.231 5.8024 16.4463 5.86689C16.6636 5.93036 16.8064 5.97642 16.882 6.00508V15.645C16.882 16.6851 16.7309 17.591 16.4369 18.3598C16.1441 19.1296 15.7342 19.7694 15.2168 20.2833C14.6972 20.7972 14.0856 21.1811 13.3777 21.439C12.6719 21.695 11.9019 21.8229 11.0668 21.8229C10.2171 21.8229 9.43574 21.6806 8.72164 21.3961C8.00962 21.1115 7.39281 20.7194 6.87536 20.2198C6.35583 19.7213 5.94911 19.1214 5.65415 18.4243C5.35817 17.7272 5.21121 16.9717 5.21121 16.1579V16.1579ZM21.1417 11.0293V21.524H18.6786V11.926C18.6786 11.5278 18.7934 11.2391 19.0232 11.061C19.254 10.8829 19.5779 10.7938 19.996 10.7938C20.2547 10.7938 20.4917 10.8256 20.708 10.889C20.9254 10.9535 21.0692 10.9996 21.1417 11.0293V11.0293ZM18.8504 6.41046C19.1381 6.12588 19.492 5.98461 19.908 5.98461C20.3272 5.98461 20.6791 6.12588 20.9678 6.41046C21.2555 6.69709 21.4004 7.04514 21.4004 7.4587C21.4004 7.87227 21.2555 8.22134 20.9678 8.50695C20.6791 8.79051 20.3272 8.93382 19.908 8.93382C19.492 8.93382 19.1381 8.79051 18.8504 8.50695C18.5595 8.22134 18.4167 7.87227 18.4167 7.4587C18.4167 7.04514 18.5595 6.69709 18.8504 6.41046V6.41046ZM34.8025 13.9027C35.0975 13.1985 35.5084 12.5924 36.0351 12.0867C36.5619 11.581 37.1797 11.188 37.8928 10.9105C38.6069 10.6331 39.3883 10.4949 40.239 10.4949C40.9872 10.4949 41.6506 10.5901 42.227 10.7836C42.8035 10.975 43.2889 11.232 43.6852 11.5524C44.0816 11.8728 44.3807 12.2475 44.5804 12.6743C44.7843 13.1022 44.8857 13.5578 44.8857 14.044C44.8857 14.5415 44.7915 14.994 44.6032 15.4004C44.4159 15.8058 44.0857 16.1559 43.6086 16.4466C43.1346 16.7393 42.494 16.9687 41.6868 17.1324C40.8796 17.2952 39.855 17.3761 38.6183 17.3761C38.3306 17.3761 38.0594 17.373 37.8079 17.3658C37.5544 17.3597 37.2832 17.3495 36.9966 17.3341C37.1104 18.0609 37.4685 18.6495 38.0667 19.0979C38.6638 19.5473 39.5166 19.7694 40.6281 19.7694C41.0017 19.7694 41.3474 19.7428 41.6661 19.6865C41.9807 19.6292 42.2664 19.5565 42.5189 19.4736C42.7569 19.3907 42.9597 19.3108 43.1336 19.23V19.2289C43.1512 19.2197 43.1719 19.2115 43.1926 19.2033C43.2133 19.1931 43.2288 19.1859 43.2495 19.1757C43.561 19.0303 43.8115 18.8901 43.9936 18.756C44.183 18.6157 44.3051 18.5134 44.359 18.4499C44.4055 18.4612 44.4759 18.495 44.5701 18.5543C44.6622 18.6127 44.7533 18.6895 44.8454 18.7857C44.9344 18.8809 45.0182 18.9935 45.0958 19.1184C45.1724 19.2453 45.2179 19.3968 45.2335 19.5719C45.278 20.1113 44.8878 20.5843 44.0671 20.9886C43.9191 21.0613 43.7535 21.1278 43.5797 21.1913C43.4099 21.2619 43.2247 21.3305 43.0146 21.3961C42.6472 21.5107 42.2229 21.61 41.7406 21.695C41.2594 21.7799 40.7274 21.8229 40.152 21.8229C39.3438 21.8229 38.5914 21.7021 37.8928 21.4585C37.1963 21.2179 36.5826 20.8576 36.0579 20.3795C35.5301 19.9035 35.1161 19.319 34.8129 18.627C34.5107 17.936 34.3606 17.1417 34.3606 16.2449C34.3606 15.3901 34.5076 14.6081 34.8025 13.9027V13.9027ZM46.4743 14.6193C46.4743 13.309 46.8831 12.2935 47.6955 11.5739C48.509 10.8542 49.6381 10.4949 51.0766 10.4949C51.9852 10.4949 52.7242 10.6188 53.2923 10.8675C53.8615 11.1173 54.1461 11.4981 54.1461 12.012C54.1461 12.2546 54.0768 12.4901 53.9392 12.7173C53.8036 12.9446 53.6929 13.0879 53.6059 13.1452C53.3617 13.0295 53.0574 12.9251 52.6973 12.8248C52.3371 12.7245 51.9263 12.6743 51.4657 12.6743C49.7798 12.6743 48.9385 13.5578 48.9385 15.3246V21.524H46.4743V14.6193ZM-4.30587 -7.53917L-5.36873 53L99.0004 44.1933L98.9756 -8.79932L-4.30587 -7.53917Z" fill="#C74E18"/>
</g>
<path fill-rule="evenodd" clip-rule="evenodd" d="M7.99205 19.3343C8.29169 19.6454 8.64581 19.8901 9.05336 20.0716C9.46091 20.25 9.9198 20.3412 10.4321 20.3412C10.9277 20.3412 11.3834 20.2541 11.7993 20.082C12.2153 19.9077 12.5683 19.6692 12.8617 19.3675C13.1509 19.0626 13.3813 18.6955 13.55 18.262C13.7166 17.8285 13.7983 17.3525 13.7983 16.8319C13.7983 16.3425 13.7166 15.8789 13.55 15.4475C13.3813 15.0141 13.1509 14.6397 12.8617 14.3213C12.5683 14.004 12.2153 13.7541 11.7993 13.5736C11.3834 13.3932 10.9277 13.303 10.4321 13.303C9.9198 13.303 9.46091 13.3932 9.05336 13.5736C8.64581 13.7541 8.29169 13.9999 7.99205 14.311C7.69137 14.6221 7.46297 14.9923 7.30372 15.4247C7.14238 15.8582 7.0638 16.3269 7.0638 16.8319C7.0638 17.338 7.14238 17.8036 7.30372 18.2298C7.46297 18.655 7.69137 19.0232 7.99205 19.3343" fill="#C74E18"/>
<path fill-rule="evenodd" clip-rule="evenodd" d="M38.4102 16.3558C39.2117 16.3558 39.8613 16.306 40.3558 16.2054C40.8514 16.1048 41.239 15.9742 41.5145 15.8155C41.7922 15.6568 41.9776 15.4764 42.0635 15.2742C42.1515 15.072 42.1955 14.8614 42.1955 14.6457C42.1955 14.0972 41.9713 13.6865 41.5271 13.4117C41.0818 13.1379 40.5318 13 39.877 13C39.3343 13 38.8618 13.0933 38.4532 13.281C38.0457 13.4698 37.702 13.7187 37.4244 14.0277C37.1478 14.3398 36.933 14.6955 36.78 15.1C36.6271 15.5054 36.5422 15.9171 36.5286 16.334C36.8628 16.3506 37.1834 16.3558 37.4904 16.3558H38.4102Z" fill="#C74E18"/>
<path fill-rule="evenodd" clip-rule="evenodd" d="M49.2168 34.5824C50.0162 34.5824 50.6668 34.5326 51.1624 34.432C51.6579 34.3314 52.0456 34.2007 52.3211 34.0421C52.5987 33.8844 52.7831 33.703 52.8701 33.5007C52.9571 33.2985 53 33.089 53 32.8723C53 32.3237 52.7779 31.9131 52.3337 31.6383C51.8874 31.3645 51.3384 31.2266 50.6825 31.2266C50.1409 31.2266 49.6684 31.3209 49.2598 31.5086C48.8512 31.6963 48.5086 31.9452 48.2299 32.2542C47.9533 32.5664 47.7396 32.9221 47.5866 33.3276C47.4326 33.731 47.3477 34.1437 47.3341 34.5606C47.6683 34.5761 47.9879 34.5824 48.2969 34.5824H49.2168Z" fill="#C74E18"/>
<path fill-rule="evenodd" clip-rule="evenodd" d="M27.2942 35.4285C26.302 35.4285 25.5812 35.5757 25.1297 35.8713C24.676 36.1668 24.4487 36.6335 24.4487 37.2681C24.4487 37.5284 24.4979 37.7669 24.5933 37.9826C24.6876 38.1994 24.852 38.3819 25.0867 38.5343C25.3183 38.6857 25.6357 38.8029 26.037 38.8817C26.4382 38.9616 26.9359 39 27.5352 39C28.2057 39 28.7369 38.9761 29.1318 38.9243C29.5268 38.8755 29.7877 38.8351 29.9197 38.806V35.6431C29.7741 35.6162 29.4996 35.5736 29.0994 35.5145C28.6971 35.4575 28.0967 35.4285 27.2942 35.4285" fill="#C74E18"/>
<path fill-rule="evenodd" clip-rule="evenodd" d="M7.92825 19.4955C8.22789 19.8066 8.58305 20.0514 8.9906 20.2339C9.39815 20.4122 9.85809 20.5035 10.3704 20.5035C10.866 20.5035 11.3228 20.4164 11.7397 20.2432C12.1557 20.069 12.5098 19.8305 12.8021 19.5287C13.0923 19.2238 13.3228 18.8557 13.4904 18.4222C13.6591 17.9887 13.7398 17.5117 13.7398 16.9911C13.7398 16.5017 13.6591 16.0371 13.4904 15.6057C13.3228 15.1712 13.0923 14.7968 12.8021 14.4774C12.5098 14.1601 12.1557 13.9101 11.7397 13.7297C11.3228 13.5482 10.866 13.458 10.3704 13.458C9.85809 13.458 9.39815 13.5482 8.9906 13.7297C8.58305 13.9101 8.22789 14.1559 7.92825 14.467C7.62756 14.7781 7.39917 15.1483 7.23887 15.5829C7.07753 16.0153 7 16.4861 7 16.9911C7 17.4972 7.07753 17.9638 7.23887 18.3901C7.39917 18.8152 7.62756 19.1844 7.92825 19.4955" fill="#C74E18"/>
<path fill-rule="evenodd" clip-rule="evenodd" d="M38.376 16.5142C39.1785 16.5142 39.8291 16.4645 40.3236 16.3639C40.8202 16.2622 41.2068 16.1326 41.4845 15.9729C41.7611 15.8142 41.9465 15.6338 42.0335 15.4306C42.1215 15.2294 42.1644 15.0189 42.1644 14.8021C42.1644 14.2535 41.9413 13.8418 41.496 13.567C41.0507 13.2922 40.4996 13.1543 39.8438 13.1543C39.3021 13.1543 38.8286 13.2487 38.42 13.4374C38.0114 13.6261 37.6677 13.874 37.3891 14.1841C37.1125 14.4962 36.8977 14.8519 36.7437 15.2574C36.5918 15.6618 36.5059 16.0745 36.4933 16.4925C36.8275 16.508 37.147 16.5142 37.4551 16.5142H38.376Z" fill="#C74E18"/>
<path fill-rule="evenodd" clip-rule="evenodd" d="M48.2723 34.7586C47.9643 34.7586 47.6437 34.7523 47.3084 34.7368C47.3221 34.3189 47.4069 33.9061 47.5609 33.5017C47.715 33.0973 47.9287 32.7405 48.2053 32.4284C48.4829 32.1183 48.8265 31.8705 49.2362 31.6817C49.6448 31.494 50.1183 31.3997 50.661 31.3997C51.3169 31.3997 51.8659 31.5365 52.3122 31.8114C52.7575 32.0862 52.9806 32.4979 52.9806 33.0475C52.9806 33.2642 52.9377 33.4747 52.8497 33.6759C52.7627 33.8781 52.5783 34.0596 52.3007 34.2172C52.0241 34.3769 51.6364 34.5066 51.1409 34.6082C50.6443 34.7088 49.9937 34.7586 49.1932 34.7586H48.2723" fill="#C74E18"/>
<path fill-rule="evenodd" clip-rule="evenodd" d="M27.7227 35.0708C26.7406 35.0708 26.0296 35.2178 25.5825 35.5127C25.1333 35.8087 24.9098 36.2744 24.9098 36.9078C24.9098 37.1675 24.9574 37.4066 25.0516 37.6219C25.1458 37.8382 25.3082 38.0213 25.5401 38.1745C25.7688 38.3246 26.0823 38.4415 26.4787 38.5191C26.8761 38.5999 27.3687 38.6392 27.9618 38.6392C28.6241 38.6392 29.1498 38.6133 29.54 38.5626C29.9302 38.514 30.1879 38.4736 30.3183 38.4446V35.285C30.1744 35.2581 29.9033 35.2157 29.5079 35.1567C29.1095 35.0998 28.5165 35.0708 27.7227 35.0708" fill="#C74E18"/>
<mask id="mask1_0_9" style="mask-type:luminance" maskUnits="userSpaceOnUse" x="0" y="0" width="99" height="99">
<path fill-rule="evenodd" clip-rule="evenodd" d="M0 99H99V0H0V99Z" fill="white"/>
</mask>
<g mask="url(#mask1_0_9)">
<path fill-rule="evenodd" clip-rule="evenodd" d="M-15.3085 107.896H45.2361V47.3525H-15.3085V107.896Z" fill="#C74E18"/>
<path fill-rule="evenodd" clip-rule="evenodd" d="M92.51 46.5971H153.055V-13.9475H92.51V46.5971Z" fill="#C74E18"/>
<path fill-rule="evenodd" clip-rule="evenodd" d="M42.7942 45.1686V101.904L66.562 99.1994C66.9491 98.9459 67.3061 98.6603 67.5897 98.297C67.9043 97.8955 67.955 96.8854 68.3121 96.5459C69.6823 95.244 71.8494 94.2795 73.6864 93.1835C75.5213 92.0937 77.5425 91.1312 79.0617 89.8242C79.4819 89.464 79.7872 88.9445 80.2084 88.7095C81.4596 88.0203 83.487 88.279 85.1367 87.7574C86.2896 87.3931 87.6101 86.7939 88.909 86.3934C90.273 85.9732 91.9744 85.8935 92.6885 85.0304C94.127 83.2918 90.2792 83.3559 89.918 83.4118C89.3705 83.4998 88.6078 83.5391 87.9672 83.7544C86.4014 84.2832 83.8399 85.1215 82.7978 84.8845C84.1411 83.8082 85.9594 83.8258 87.4911 83.269C89.176 82.6594 90.986 81.5873 92.5829 80.5285C93.6168 79.8465 96.1647 78.0033 95.3078 76.8836C94.1125 75.3167 92.498 77.0098 90.896 77.8771C88.9845 78.9089 86.153 79.771 84.6917 79.7596C87.1806 78.556 88.4112 77.6039 90.6828 75.8507C92.1855 74.6906 96.2113 71.9905 94.6983 70.2912C94.2615 69.7965 93.0983 70.0283 92.4804 70.3108C90.5483 71.1895 86.3641 74.9265 84.4619 74.9617C85.3726 74.2145 89.117 70.1225 90.7221 69.0855C91.9889 68.2617 94.4209 67.2092 93.7834 65.9942C92.644 63.8064 86.7449 67.382 85.2122 68.4894C83.4487 69.7685 81.8715 71.5651 79.8079 73.0585C79.3205 73.4094 77.5859 74.5322 77.0323 74.7848C76.4962 75.029 75.8928 75.4005 75.3257 75.6303C74.6271 75.9128 73.1824 76.0867 72.3772 76.1115C70.7897 76.1643 68.8833 75.6572 68.0947 74.9328C67.6487 74.5209 67.4086 72.6549 67.0433 71.7939C66.7276 71.0466 62.3623 64.5629 60.6268 66.7186C59.8227 67.7163 60.9321 68.9582 61.6917 69.7996C62.4855 70.6772 62.47 72.5618 62.3168 73.4094C62.1968 74.0758 61.6731 75.5837 61.5748 76.0836C61.2301 77.8771 61.8138 78.9782 61.7 81.2561C61.6058 83.0227 61.3957 86.6583 60.5854 87.9727C60.0421 88.8524 55.7927 91.9685 52.4737 94.2277C49.8088 89.7279 48.273 84.4798 48.273 78.8696C48.273 62.1909 61.7931 48.6707 78.4718 48.6707C86.3879 48.6707 93.5899 51.7206 98.9756 56.7048L100.756 55.0758C100.756 55.0779 101.75 45.0537 101.751 45.0547L98.6247 41.1221" fill="#C74E18"/>
</g>
<path fill-rule="evenodd" clip-rule="evenodd" d="M92.4314 54.2012C92.1637 54.6597 91.6884 54.6908 91.2545 54.5155C91.4891 55.5695 92.7241 57.2748 90.5789 56.8806C89.2328 56.5632 88.4161 55.3298 88.7668 53.9242C88.9391 53.4896 89.402 52.6836 89.8638 52.416C89.9033 52.3859 89.9427 52.3724 89.9811 52.3496C86.4213 50.8382 82.5066 50 78.3968 50C75.4182 50 72.5455 50.444 69.8357 51.2593C69.571 51.8548 69.3655 52.3589 68.8725 52.8693C68.0817 53.7126 67.8108 53.7852 67.9125 55.0663C67.9084 56.1348 68.0869 56.6203 67.5265 57.5954C66.7315 58.973 65.6739 60.2769 65.1924 61.9096C64.8489 62.9262 65.3148 63.8744 65.4498 64.8712C65.8151 65.7281 66.2198 66.5652 66.6682 67.3857L66.6796 67.3795C67.4123 67.698 67.8067 68.4345 68.4522 68.9075C68.5342 68.6056 68.6401 68.0133 68.8279 67.6876C68.858 67.6347 68.8923 67.588 68.9265 67.5507C69.434 67.0268 69.956 67.533 70.3421 67.0413C71.189 66.1026 69.6706 64.3069 69.9394 63.1399C70.4636 60.9947 73.6238 59.7572 75.3559 59.9377C76.4602 59.9636 77.5167 59.5518 78.4788 60.0041C79.3651 60.4107 79.8539 61.5103 80.708 61.7955C81.8362 62.142 83.2186 61.5113 84.0748 61.085C85.2942 60.5621 86.1411 60.336 87.3772 60.1317C88.5852 59.808 89.7331 60.4698 90.5478 60.1223C91.4777 59.7427 91.8025 58.2966 92.5819 57.8308C93.241 57.3931 94.8548 56.8941 95.6986 56.668C96.2133 56.53 96.5351 56.7188 97 56.5632C96.1344 55.8661 95.2326 55.2209 94.2923 54.6234C94.1574 55.8765 93.1092 54.9356 92.4314 54.2012" fill="#C74E18"/>
<path fill-rule="evenodd" clip-rule="evenodd" d="M55.9541 65.4451C55.7143 65.9244 55.733 65.7159 55.8762 66.2626C56.0039 66.748 56.3609 67.2947 56.3952 67.7864C56.4636 68.6588 55.7714 70.0613 55.3667 70.8455C55.0875 71.3849 54.6288 71.636 54.3008 72.0955C53.9023 72.6474 54.0912 72.8486 54.3133 73.4638C54.5405 74.1048 54.5125 74.4752 54.2261 75.1007C54.0009 75.5976 53.9967 76.2749 53.7798 76.7251C53.5297 77.2355 53.0336 77.0737 52.5448 77.2397C52.632 77.5363 52.9142 77.7116 53.1073 77.8952C52.1307 78.915 51.2599 80.4668 52.0456 81.7552C52.3372 82.2396 52.4348 82.3226 52.3829 82.8921C52.3382 83.362 52.3756 83.4782 52.4545 83.9523C52.497 84.2043 52.3715 84.6161 52.4607 84.8309C52.4887 84.8942 52.5199 84.9471 52.5624 84.9917C52.1369 85.3402 51.6979 85.6753 51.2485 86C51.043 85.6286 50.85 85.2593 50.6684 84.889C50.2325 82.8703 50 80.778 50 78.6286C50 72.9399 51.6076 67.6246 54.388 63.1101C55.3957 63.1101 56.8694 63.5593 56.3505 64.7906C56.2447 65.0385 56.0651 65.2159 55.9541 65.4451" fill="#C74E18"/>
</svg>
