<?xml version="1.0" encoding="UTF-8"?>
<svg width="400px" height="107px" viewBox="0 0 400 107" version="1.1" xmlns="http://www.w3.org/2000/svg" xmlns:xlink="http://www.w3.org/1999/xlink">
    <title>Group-78</title>
    <defs>
        <polygon id="path-1" points="0 -1.68791278e-16 81.4229095 -1.68791278e-16 81.4229095 82.9770134 0 82.9770134"></polygon>
        <polygon id="path-3" points="0 0 79.3989089 0 79.3989089 106.642097 0 106.642097"></polygon>
    </defs>
    <g id="Page-1" stroke="none" stroke-width="1" fill="none" fill-rule="evenodd">
        <g id="attach-office" transform="translate(0.000000, 0.000000)">
            <g id="Group-78" transform="translate(-0.000000, 0.000000)">
                <path d="M246.628927,106.641696 L258.221113,106.641696 L258.221113,105.540063 C254.024892,103.882606 250.074035,101.566172 246.628927,98.6598632 L246.628927,106.641696 Z" id="Fill-60" fill="#0C25AC" fill-rule="nonzero"></path>
                <g id="Fill-62-Clipped" transform="translate(0.000000, 23.664983)">
                    <mask id="mask-2" fill="white">
                        <use xlink:href="#path-1"></use>
                    </mask>
                    <g id="path-1"></g>
                    <path d="M70.8362147,51.1197851 C67.1006768,64.0409407 56.513982,72.2931746 41.5678243,72.2931746 C22.8851272,72.2931746 10.5858936,60.1491711 10.5858936,41.466474 C10.5858936,21.6961646 22.7288956,9.08546921 41.4115927,9.08546921 C56.513982,9.08546921 67.2549054,17.3357002 70.8362147,29.7911654 C70.9914448,33.5267033 71.1476764,37.1080126 71.1476764,40.6883204 C71.1476764,44.2696297 70.9914448,47.6957089 70.8362147,51.1197851 L70.8362147,51.1197851 Z M70.8362147,16.0347715 C64.2975211,5.91577013 52.7764411,-1.68791278e-16 38.7646686,-1.68791278e-16 C16.6578953,-1.68791278e-16 -0.000801187761,14.9451562 -0.000801187761,41.567624 C-0.000801187761,66.9442448 17.4360489,82.6675546 39.8552855,82.6675546 C53.3993646,82.6675546 64.4537527,77.2194779 70.8362147,66.7880132 L70.8362147,82.9770134 L81.4229095,82.9770134 L81.4229095,2.02400058 L70.8362147,2.02400058 L70.8362147,16.0347715 Z" id="Fill-62" fill="#0C25AC" fill-rule="nonzero" mask="url(#mask-2)"></path>
                </g>
                <path d="M110.449842,73.3285095 L110.449842,35.9641168 L127.263769,35.9641168 L127.263769,25.6888838 L110.449842,25.6888838 L110.449842,0.000801187761 L100.174609,0.000801187761 L100.174609,25.6888838 L89.2774538,25.6888838 L89.2774538,35.9641168 L100.174609,35.9641168 L100.174609,73.6389698 C100.174609,95.2800527 107.491456,106.644901 128.977309,106.644901 C129.911694,106.644901 130.844076,106.644901 131.623231,106.489671 L131.623231,96.5258996 C115.275997,96.5258996 110.449842,90.1424362 110.449842,73.3285095" id="Fill-65" fill="#0C25AC" fill-rule="nonzero"></path>
                <path d="M156.011687,73.3285095 L156.011687,35.9641168 L172.825614,35.9641168 L172.825614,25.6888838 L156.011687,25.6888838 L156.011687,0.000801187761 L145.736454,0.000801187761 L145.736454,25.6888838 L134.839299,25.6888838 L134.839299,35.9641168 L145.736454,35.9641168 L145.736454,73.6389698 C145.736454,95.2800527 153.055304,106.644901 174.539154,106.644901 C175.47354,106.644901 176.406923,106.644901 177.185077,106.489671 L177.185077,96.5258996 C160.837842,96.5258996 156.011687,90.1424362 156.011687,73.3285095" id="Fill-67" fill="#0C25AC" fill-rule="nonzero"></path>
                <g id="Fill-69-Clipped" transform="translate(320.601091, 0.000000)">
                    <mask id="mask-4" fill="white">
                        <use xlink:href="#path-3"></use>
                    </mask>
                    <g id="path-3"></g>
                    <path d="M48.4187808,23.9755437 C34.8737003,23.9755437 20.7076992,28.3360081 10.275233,43.7468547 L10.275233,0 L0,0 L0,106.642097 L10.275233,106.642097 L10.275233,57.1367052 C18.6826971,40.1675484 32.3840093,34.0955466 45.460395,34.0955466 C57.6043985,34.0955466 68.8130153,42.3467791 68.8130153,55.5803979 L68.8130153,106.642097 L79.3997101,106.642097 L79.3997101,54.0220877 C79.3997101,35.807084 65.3889391,23.9755437 48.4187808,23.9755437" id="Fill-69" fill="#0C25AC" fill-rule="nonzero" mask="url(#mask-4)"></path>
                </g>
                <path d="M273.979575,22.6295483 C269.384763,22.6295483 265.115434,23.2875238 261.178597,24.4682742 L261.178597,35.3474025 C265.237615,33.5517405 269.864474,32.5933196 274.91396,32.5933196 C287.836117,32.5933196 297.799888,37.8861662 302.625042,49.5644793 L311.655429,45.5154767 C304.960504,29.7911654 291.104963,22.6295483 273.979575,22.6295483" id="Fill-72" fill="#0C25AC" fill-rule="nonzero"></path>
                <path d="M304.960905,80.2372517 C299.668058,91.1354082 287.990746,96.4282549 275.848746,96.4282549 C256.258704,96.4282549 244.277942,83.3869211 244.244893,64.278593 C244.244893,58.9036246 244.257912,55.3603718 244.244893,53.1741306 C243.067147,49.5747946 241.071188,46.1016457 238.484353,43.3065019 C235.405789,49.3484591 233.724296,56.6352618 233.670216,64.4568573 C233.670216,89.3657848 250.782585,105.925334 275.848746,105.925334 C292.506441,105.925334 306.984905,98.6084871 313.212137,84.1290213 C310.565213,82.7289457 307.607829,81.4830987 304.960905,80.2372517" id="Fill-74" fill="#0C25AC" fill-rule="nonzero"></path>
                <path d="M258.220913,83.8736427 L258.220913,83.8736427 L258.220913,25.688383 L247.634218,25.688383 L247.634218,39.7001555 C241.095524,29.5801526 229.575446,23.6643824 215.563673,23.6643824 C193.4569,23.6643824 176.798203,38.6095386 176.798203,65.231005 C176.798203,90.6086273 194.234052,106.332939 216.65429,106.332939 C227.351148,106.332939 236.565809,102.900851 243.119525,96.3271049 C241.871675,95.1022891 240.699938,93.7983561 239.627348,92.4143042 C238.959357,91.5560318 238.332428,90.6647104 237.737546,89.7523579 C232.679047,93.6992091 226.125331,95.9575571 218.365827,95.9575571 C199.684132,95.9575571 187.383897,83.8135536 187.383897,65.131858 C187.383897,45.360547 199.5279,32.7508531 218.209596,32.7508531 C218.897616,32.7508531 220.622172,32.826966 220.826475,32.8329749 C244.049904,34.2140223 248.416377,53.7970541 248.416377,53.7970541 C248.416377,53.7970541 248.780918,62.4228419 249.114412,65.4673554 C249.447907,68.5128703 249.759368,77.2648451 258.220913,83.8736427" id="Fill-76" fill="#0C25AC" fill-rule="nonzero"></path>
            </g>
        </g>
    </g>
</svg>